# xmcd CD database file
#
# Track frame offsets:
#	150
#	17208
#	27470
#	41423
#	54205
#	65925
#	82788
#	97690
#	110350
#	130410
#	143083
#	163235
#	176538
#	186278
#
# Disc length: 2593 seconds
#
# Revision: 0
# Processed by: cddbd v1.5.1PL0 Copyright (c) Steve Scherf et al.
# Submitted via: CDex 1.60beta1-cs1
#
DISCID=b70a1f0e
DTITLE=rancho típico de santa maria da reguenga - rancho típico de santa maria da reguenga
DYEAR=1900
DGENRE=folclore
TTITLE0=malhão traçado
TTITLE1=mugida
TTITLE2=vira da reguenga
TTITLE3=tiroliro
TTITLE4=cãzinho
TTITLE5=mouraria
TTITLE6=tirana
TTITLE7=malhão da reguenga
TTITLE8=papo seco
TTITLE9=cana verde
TTITLE10=fado
TTITLE11=são joão
TTITLE12=chulita
TTITLE13=ramaldeira
EXTD=
EXTT0=
EXTT1=
EXTT2=
EXTT3=
EXTT4=
EXTT5=
EXTT6=
EXTT7=
EXTT8=
EXTT9=
EXTT10=
EXTT11=
EXTT12=
EXTT13=
PLAYORDER=
